<svg width="274" height="274" viewBox="0 0 274 274" fill="none" xmlns="http://www.w3.org/2000/svg">
<g opacity="0.574707">
<mask id="mask0_0_1282" style="mask-type:alpha" maskUnits="userSpaceOnUse" x="0" y="0" width="274" height="274">
<circle cx="137" cy="137" r="137" fill="white"/>
</mask>
<g mask="url(#mask0_0_1282)">
<path d="M457.922 70.4177L38.4188 552.592L40.4219 554.335L459.925 72.1603L457.922 70.4177ZM453.055 64.8227L33.5515 546.997L35.5546 548.74L455.058 66.5653L453.055 64.8227ZM448.187 59.2282L28.6838 541.403L30.6868 543.145L450.19 60.9709L448.187 59.2282ZM443.32 53.6333L23.816 535.808L25.819 537.55L445.323 55.3759L443.32 53.6333ZM438.452 48.0388L18.9488 530.213L20.9518 531.955L440.455 49.7815L438.452 48.0388ZM433.585 42.4439L14.0809 524.618L16.084 526.361L435.588 44.1866L433.585 42.4439ZM428.717 36.8489L9.21368 519.023L11.2167 520.766L430.72 38.5916L428.717 36.8489ZM423.849 31.2545L4.34592 513.428L6.34891 515.171L425.853 32.9972L423.849 31.2545ZM418.982 25.6595L-0.521881 507.834L1.48114 509.577L420.985 27.4022L418.982 25.6595ZM414.114 20.0651L-5.38914 502.239L-3.38612 503.982L416.117 21.8078L414.114 20.0651ZM409.247 14.4695L-10.2569 496.644L-8.25391 498.387L411.25 16.2122L409.247 14.4695ZM404.378 8.87451L-15.1247 491.049L-13.1217 492.792L406.381 10.6172L404.378 8.87451ZM399.512 3.28012L-19.9925 485.454L-17.9895 487.197L401.515 5.0228L399.512 3.28012ZM394.644 -2.3143L-24.8603 479.859L-22.8573 481.602L396.647 -0.571625L394.644 -2.3143ZM389.776 -7.90988L-29.727 474.264L-27.724 476.007L391.779 -6.16721L389.776 -7.90988ZM384.908 -13.5043L-34.5948 468.67L-32.5918 470.413L386.911 -11.7616L384.908 -13.5043ZM380.04 -19.0993L-39.4626 463.075L-37.4596 464.818L382.044 -17.3566L380.04 -19.0993ZM375.173 -24.6937L-44.3304 457.48L-42.3273 459.223L377.176 -22.951L375.173 -24.6937ZM370.305 -30.2887L-49.1982 451.886L-47.1951 453.628L372.308 -28.546L370.305 -30.2887ZM365.438 -35.8837L-54.0654 446.291L-52.0624 448.033L367.441 -34.141L365.438 -35.8837ZM360.57 -41.4781L-58.9332 440.696L-56.9302 442.439L362.573 -39.7354L360.57 -41.4781ZM355.703 -47.073L-63.801 435.101L-61.798 436.844L357.706 -45.3304L355.703 -47.073ZM350.835 -52.6674L-68.6682 429.506L-66.6652 431.249L352.838 -50.9248L350.835 -52.6674ZM345.968 -58.2624L-73.536 423.912L-71.533 425.655L347.971 -56.5198L345.968 -58.2624ZM341.1 -63.8574L-78.4033 418.317L-76.4003 420.06L343.103 -62.1148L341.1 -63.8574ZM336.233 -69.4518L-83.2711 412.723L-81.2681 414.465L338.236 -67.7092L336.233 -69.4518ZM331.365 -75.0468L-88.1389 407.127L-86.1358 408.87L333.368 -73.3042L331.365 -75.0468ZM326.497 -80.6412L-93.0061 401.533L-91.0031 403.275L328.5 -78.8985L326.497 -80.6412ZM321.63 -86.2368L-97.8739 395.938L-95.8709 397.68L323.633 -84.4941L321.63 -86.2368ZM316.762 -91.8312L-102.741 390.343L-100.738 392.086L318.765 -90.0885L316.762 -91.8312ZM311.895 -97.4262L-107.609 384.748L-105.606 386.491L313.898 -95.6835L311.895 -97.4262ZM307.027 -103.021L-112.477 379.154L-110.474 380.896L309.03 -101.278L307.027 -103.021ZM302.16 -108.616L-117.345 373.558L-115.341 375.301L304.163 -106.873L302.16 -108.616ZM297.292 -114.211L-122.212 367.964L-120.209 369.706L299.295 -112.468L297.292 -114.211ZM292.424 -119.806L-127.08 362.369L-125.077 364.111L294.427 -118.063L292.424 -119.806ZM287.556 -125.4L-131.947 356.774L-129.944 358.517L289.559 -123.657L287.556 -125.4ZM282.688 -130.995L-136.815 351.179L-134.812 352.922L284.692 -129.252L282.688 -130.995ZM277.821 -136.589L-141.682 345.584L-139.679 347.327L279.824 -134.847L277.821 -136.589ZM272.953 -142.184L-146.55 339.99L-144.547 341.733L274.956 -140.442L272.953 -142.184ZM268.086 -147.779L-151.417 334.395L-149.414 336.138L270.089 -146.037L268.086 -147.779ZM263.218 -153.374L-156.285 328.8L-154.282 330.543L265.221 -151.632L263.218 -153.374ZM258.351 -158.969L-161.153 323.206L-159.15 324.948L260.354 -157.226L258.351 -158.969ZM253.483 -164.564L-166.02 317.611L-164.017 319.353L255.486 -162.821L253.483 -164.564ZM248.616 -170.158L-170.888 312.016L-168.885 313.759L250.619 -168.415L248.616 -170.158ZM243.748 -175.753L-175.756 306.421L-173.753 308.164L245.751 -174.01L243.748 -175.753ZM238.88 -181.348L-180.623 300.826L-178.62 302.569L240.884 -179.605L238.88 -181.348ZM234.013 -186.943L-185.491 295.232L-183.488 296.974L236.016 -185.2L234.013 -186.943ZM229.145 -192.538L-190.358 289.636L-188.355 291.379L231.148 -190.795L229.145 -192.538ZM224.278 -198.133L-195.226 284.042L-193.223 285.785L226.281 -196.39L224.278 -198.133ZM219.409 -203.727L-200.094 278.447L-198.091 280.189L221.412 -201.984L219.409 -203.727ZM214.542 -209.322L-204.961 272.852L-202.958 274.595L216.545 -207.579L214.542 -209.322ZM209.674 -214.917L-209.829 267.257L-207.826 269L211.677 -213.174L209.674 -214.917ZM204.807 -220.512L-214.697 261.662L-212.694 263.405L206.81 -218.769L204.807 -220.512ZM199.939 -226.106L-219.564 256.068L-217.561 257.811L201.942 -224.364L199.939 -226.106ZM195.072 -231.701L-224.432 250.473L-222.429 252.216L197.075 -229.959L195.072 -231.701ZM190.204 -237.296L-229.299 244.878L-227.296 246.621L192.207 -235.553L190.204 -237.296ZM185.336 -242.891L-234.167 239.284L-232.164 241.026L187.339 -241.148L185.336 -242.891ZM180.469 -248.486L-239.034 233.689L-237.031 235.431L182.472 -246.743L180.469 -248.486ZM175.601 -254.08L-243.902 228.094L-241.899 229.836L177.604 -252.337L175.601 -254.08ZM170.734 -259.675L-248.77 222.499L-246.767 224.242L172.737 -257.932L170.734 -259.675ZM165.866 -265.27L-253.637 216.904L-251.634 218.647L167.869 -263.527L165.866 -265.27Z" fill="#E1E1E1"/>
</g>
</g>
</svg>
