<svg width="131" height="180" viewBox="0 0 131 180" fill="none" xmlns="http://www.w3.org/2000/svg">
<g opacity="0.27345">
<path fill-rule="evenodd" clip-rule="evenodd" d="M96.5398 94.0169C97.7639 94.0141 98.7563 95.0065 98.7527 96.2297C98.7491 97.4546 97.7517 98.452 96.5268 98.4556C95.3027 98.4601 94.3103 97.4677 94.3139 96.2428C94.3175 95.0196 95.3149 94.0205 96.5398 94.0169ZM84.129 94.0543C85.3522 94.0507 86.3446 95.0431 86.3419 96.2671C86.3383 97.492 85.34 98.4903 84.1159 98.493C82.891 98.4967 81.8995 97.5034 81.9031 96.2802C81.9058 95.0561 82.9041 94.0579 84.129 94.0543ZM71.7182 94.09C72.9405 94.0872 73.9338 95.0805 73.931 96.3028C73.9266 97.5269 72.9275 98.526 71.7051 98.5288C70.4802 98.5324 69.4878 97.54 69.4922 96.3159C69.495 95.0935 70.4933 94.0936 71.7182 94.09ZM59.3056 94.1274C60.5306 94.1238 61.523 95.1162 61.5194 96.3411C61.5149 97.5634 60.5175 98.5626 59.2934 98.567C58.0694 98.5698 57.0761 97.5765 57.0797 96.3533C57.0842 95.1292 58.0824 94.131 59.3056 94.1274ZM46.894 94.1639C48.1189 94.1603 49.1121 95.1536 49.1068 96.3768C49.1049 97.6 48.1058 98.5991 46.8809 98.6027C45.6577 98.6063 44.6653 97.6139 44.668 96.3899C44.6733 95.1666 45.6716 94.1667 46.894 94.1639ZM34.484 94.2005C35.7089 94.1969 36.7013 95.1893 36.6968 96.4133C36.6924 97.6374 35.6958 98.6357 34.4709 98.6393C33.2469 98.6437 32.2536 97.6505 32.2581 96.4264C32.2617 95.2015 33.2591 94.2041 34.484 94.2005ZM96.5762 81.6865C97.8002 81.682 98.7926 82.6745 98.789 83.8994C98.7863 85.1217 97.7871 86.1208 96.5631 86.1253C95.339 86.128 94.3458 85.1348 94.3502 83.9124C94.3538 82.6875 95.3521 81.6893 96.5762 81.6865ZM84.1653 81.7222C85.3885 81.7186 86.3818 82.7119 86.3782 83.9351C86.3737 85.1591 85.3755 86.1574 84.1523 86.161C82.9274 86.1646 81.9349 85.1722 81.9394 83.9481C81.943 82.7249 82.9404 81.7258 84.1653 81.7222ZM71.7537 81.7588C72.9786 81.7552 73.971 82.7476 73.9665 83.9716C73.9621 85.1957 72.9646 86.1948 71.7406 86.1976C70.5165 86.202 69.5233 85.2088 69.5277 83.9847C69.5313 82.7615 70.5296 81.7632 71.7537 81.7588ZM59.3428 81.7945C60.566 81.7926 61.5593 82.7858 61.5557 84.0073C61.5521 85.2322 60.553 86.2314 59.3298 86.2333C58.1057 86.2377 57.1133 85.2453 57.1169 84.0204C57.1196 82.7981 58.1179 81.7981 59.3428 81.7945ZM46.932 81.8319C48.156 81.8291 49.1476 82.8207 49.1449 84.0447C49.1404 85.2688 48.143 86.2679 46.9181 86.2715C45.694 86.2743 44.7016 85.2819 44.7052 84.0587C44.7088 82.8338 45.7071 81.8355 46.932 81.8319ZM34.5195 81.8693C35.7435 81.8648 36.7359 82.8572 36.7323 84.0821C36.7304 85.3053 35.7313 86.3045 34.5064 86.3081C33.2823 86.3108 32.2908 85.3176 32.2935 84.0952C32.2971 82.8703 33.2963 81.8712 34.5195 81.8693ZM96.6125 69.3528C97.8357 69.3508 98.8289 70.3441 98.8253 71.5656C98.8217 72.7905 97.8235 73.7888 96.5994 73.7915C95.3762 73.7968 94.3829 72.8036 94.3865 71.5787C94.3901 70.3572 95.3893 69.358 96.6125 69.3528ZM84.2008 69.391C85.4257 69.3874 86.4181 70.3798 86.4137 71.6039C86.4109 72.8279 85.4126 73.8262 84.1877 73.8298C82.9645 73.8334 81.9721 72.841 81.9749 71.6169C81.9793 70.3929 82.9776 69.3946 84.2008 69.391ZM71.7891 69.4276C73.014 69.424 74.0064 70.4164 74.002 71.6404C74.0001 72.8636 73.001 73.8627 71.7769 73.8655C70.552 73.8691 69.5604 72.8776 69.564 71.6526C69.5676 70.4294 70.5659 69.4295 71.7891 69.4276ZM59.3791 69.4641C60.6032 69.4597 61.5956 70.4521 61.592 71.677C61.5884 72.9019 60.591 73.8993 59.3661 73.9029C58.1412 73.9065 57.1479 72.9133 57.1532 71.6901C57.1568 70.4651 58.1542 69.4677 59.3791 69.4641ZM46.9675 69.5007C48.1915 69.4962 49.1848 70.4895 49.1803 71.7135C49.1767 72.9367 48.1776 73.9359 46.9544 73.9395C45.7295 73.9431 44.7379 72.9498 44.7415 71.7266C44.7451 70.5034 45.7434 69.5034 46.9675 69.5007ZM34.5566 69.5364C35.7807 69.5336 36.7731 70.526 36.7703 71.7501C36.765 72.9733 35.7676 73.9724 34.5444 73.976C33.3195 73.9796 32.3263 72.9864 32.3307 71.7623C32.3335 70.54 33.3326 69.5408 34.5566 69.5364ZM96.6488 57.0224C97.8737 57.0188 98.8661 58.0112 98.8617 59.2353C98.8581 60.4602 97.8598 61.4584 96.6357 61.4612C95.4117 61.4656 94.4193 60.4732 94.4229 59.2483C94.4256 58.0243 95.4239 57.026 96.6488 57.0224ZM84.238 57.0581C85.462 57.0553 86.4544 58.0478 86.4508 59.271C86.4472 60.4959 85.4481 61.495 84.2241 61.4977C83 61.5022 82.0084 60.5089 82.012 59.284C82.014 58.0608 83.0131 57.0617 84.238 57.0581ZM71.8271 57.0955C73.0495 57.0911 74.0428 58.0843 74.04 59.3084C74.0356 60.5324 73.0373 61.5307 71.8132 61.5352C70.5892 61.5379 69.5959 60.5447 69.6004 59.3223C69.604 58.0974 70.6022 57.0991 71.8271 57.0955ZM59.4155 57.1321C60.6395 57.1276 61.6319 58.1217 61.6283 59.3449C61.6247 60.5681 60.6256 61.5673 59.4015 61.5717C58.1783 61.5753 57.1859 60.5812 57.1895 59.358C57.1923 58.1339 58.1914 57.1348 59.4155 57.1321ZM47.0038 57.1686C48.2278 57.1642 49.2211 58.1574 49.2166 59.3815C49.2139 60.6055 48.2156 61.6038 46.9907 61.6074C45.7667 61.6119 44.7734 60.6186 44.7779 59.3946C44.7823 58.1705 45.7806 57.1722 47.0038 57.1686ZM34.593 57.2043C35.8179 57.2007 36.8094 58.194 36.8058 59.4172C36.8022 60.6421 35.8039 61.6404 34.579 61.644C33.355 61.6484 32.3634 60.6552 32.3662 59.4311C32.3698 58.2062 33.3681 57.2079 34.593 57.2043ZM96.6851 44.6903C97.9092 44.6859 98.9024 45.6791 98.898 46.9032C98.8952 48.1273 97.897 49.1255 96.6721 49.1291C95.4471 49.1327 94.4547 48.1403 94.4592 46.9163C94.4628 45.6931 95.4611 44.6931 96.6851 44.6903ZM84.2743 44.7277C85.4984 44.7233 86.4908 45.7157 86.4872 46.9406C86.4827 48.163 85.4853 49.1621 84.2612 49.1665C83.0363 49.1701 82.0431 48.1769 82.0484 46.9537C82.052 45.7288 83.0494 44.7314 84.2743 44.7277ZM71.8626 44.7626C73.0875 44.759 74.0799 45.7531 74.0763 46.9763C74.0719 48.2004 73.0736 49.1987 71.8504 49.2023C70.6255 49.2059 69.6331 48.2135 69.6367 46.9885C69.6394 45.7662 70.6386 44.7671 71.8626 44.7626ZM59.4518 44.8C60.6758 44.7973 61.6683 45.7897 61.6646 47.0129C61.661 48.2361 60.6628 49.2361 59.4387 49.2388C58.2147 49.2433 57.2214 48.25 57.2259 47.026C57.2295 45.8027 58.2277 44.8045 59.4518 44.8ZM47.041 44.8357C48.265 44.833 49.2557 45.8254 49.2538 47.0486C49.2502 48.2735 48.2519 49.2718 47.027 49.2754C45.803 49.2781 44.8114 48.2866 44.8142 47.0625C44.8169 45.8385 45.8161 44.8393 47.041 44.8357ZM34.6293 44.874C35.8533 44.8695 36.8458 45.8619 36.8413 47.086C36.8385 48.31 35.8403 49.3083 34.6154 49.3119C33.3922 49.3155 32.3997 48.3231 32.4034 47.0999C32.407 45.875 33.4052 44.8767 34.6293 44.874ZM96.7215 32.3583C97.9455 32.3555 98.9379 33.3479 98.9352 34.572C98.9307 35.7961 97.9324 36.7943 96.7084 36.7988C95.4843 36.8015 94.4928 35.8083 94.4947 34.5851C94.4991 33.361 95.4974 32.3627 96.7215 32.3583ZM84.3098 32.3949C85.5347 32.3912 86.5271 33.3853 86.5226 34.6077C86.5199 35.8318 85.5216 36.83 84.2967 36.8336C83.0735 36.8373 82.0811 35.8448 82.0838 34.6208C82.0883 33.3984 83.0866 32.3985 84.3098 32.3949ZM71.8989 32.4323C73.1238 32.4287 74.1163 33.4211 74.1118 34.6451C74.1082 35.8683 73.1108 36.8674 71.8859 36.8711C70.6618 36.8755 69.6694 35.8814 69.673 34.6582C69.6766 33.4333 70.6749 32.435 71.8989 32.4323ZM59.4881 32.468C60.7122 32.4652 61.7037 33.4568 61.701 34.6808C61.6974 35.9057 60.6999 36.9032 59.4742 36.9076C58.2501 36.9104 57.2586 35.9188 57.2613 34.6948C57.2649 33.4699 58.2632 32.4716 59.4881 32.468ZM47.0773 32.5054C48.3005 32.5018 49.2929 33.4942 49.2901 34.7182C49.2857 35.9423 48.2874 36.9406 47.0642 36.9442C45.8393 36.9478 44.8461 35.9545 44.8513 34.7313C44.8541 33.5072 45.8524 32.509 47.0773 32.5054ZM34.6665 32.5411C35.8888 32.5383 36.8812 33.5307 36.8793 34.7539C36.8749 35.978 35.8757 36.9771 34.6525 36.9807C33.4285 36.9835 32.4361 35.9911 32.4397 34.7679C32.4424 33.5438 33.4416 32.5447 34.6665 32.5411Z" fill="#A1AFBC"/>
<mask id="mask0_0_1436" style="mask-type:alpha" maskUnits="userSpaceOnUse" x="0" y="49" width="131" height="131">
<path fill-rule="evenodd" clip-rule="evenodd" d="M130.615 114.61L65.8681 179.357L0.992166 114.481L65.7393 49.7337L130.615 114.61Z" fill="white"/>
</mask>
<g mask="url(#mask0_0_1436)">
<path fill-rule="evenodd" clip-rule="evenodd" d="M96.7729 142.794C97.9927 142.797 98.9862 143.79 98.9883 145.009C98.9886 146.23 97.9971 147.223 96.7773 147.22C95.5567 147.22 94.5624 146.225 94.562 145.005C94.5599 143.786 95.5515 142.794 96.7729 142.794ZM84.3954 142.782C85.6169 142.784 86.6104 143.777 86.6108 144.998C86.6128 146.218 85.6213 147.21 84.3998 147.209C83.1801 147.207 82.1866 146.214 82.1845 144.993C82.1841 143.773 83.1757 142.781 84.3954 142.782ZM72.0196 142.769C73.2402 142.771 74.2337 143.765 74.235 144.984C74.237 146.205 73.2455 147.198 72.0232 147.196C70.8034 147.195 69.8099 146.202 69.8078 144.981C69.8075 143.76 70.799 142.769 72.0196 142.769ZM59.6438 142.758C60.8644 142.758 61.8579 143.752 61.8591 144.973C61.8604 146.194 60.8697 147.185 59.6482 147.184C58.4268 147.183 57.4332 146.189 57.4329 144.969C57.4317 143.747 58.4224 142.756 59.6438 142.758ZM47.2672 142.745C48.4878 142.746 49.4821 143.74 49.4825 144.961C49.4837 146.18 48.4913 147.173 47.2716 147.172C46.0518 147.17 45.0574 146.176 45.0562 144.956C45.055 143.737 46.0457 142.744 47.2672 142.745ZM34.8913 142.732C36.1119 142.734 37.1046 143.729 37.1075 144.948C37.1079 146.169 36.1163 147.161 34.8966 147.159C33.6751 147.158 32.6808 146.164 32.6804 144.943C32.6792 143.723 33.6707 142.732 34.8913 142.732ZM96.7598 130.497C97.9813 130.499 98.9748 131.492 98.9752 132.713C98.9764 133.934 97.9849 134.926 96.7643 134.924C95.5437 134.923 94.5501 133.93 94.5489 132.708C94.5469 131.488 95.5384 130.496 96.7598 130.497ZM84.384 130.484C85.6046 130.486 86.5973 131.481 86.5994 132.7C86.6006 133.921 85.609 134.914 84.3884 134.912C83.167 134.911 82.1743 133.917 82.1731 132.695C82.171 131.476 83.1626 130.483 84.384 130.484ZM72.0082 130.473C73.228 130.474 74.2215 131.467 74.2236 132.688C74.2239 133.909 73.2324 134.9 72.0118 134.9C70.7912 134.898 69.7977 133.904 69.7964 132.685C69.7952 131.463 70.7868 130.472 72.0082 130.473ZM59.6316 130.46C60.8522 130.461 61.8457 131.456 61.8469 132.676C61.8481 133.896 60.8566 134.889 59.636 134.888C58.4154 134.886 57.4218 133.891 57.4206 132.671C57.4194 131.452 58.411 130.458 59.6316 130.46ZM47.2549 130.448C48.4764 130.449 49.4699 131.443 49.4702 132.663C49.4723 133.884 48.4808 134.876 47.2593 134.874C46.0387 134.874 45.0452 133.88 45.044 132.659C45.0436 131.438 46.0352 130.447 47.2549 130.448ZM34.8783 130.436C36.0997 130.437 37.0932 131.431 37.0936 132.651C37.0957 133.872 36.1041 134.863 34.8827 134.862C33.6621 134.862 32.6694 133.867 32.6673 132.647C32.6661 131.425 33.6577 130.434 34.8783 130.436ZM96.7476 118.2C97.9682 118.2 98.9617 119.196 98.9629 120.415C98.965 121.636 97.9735 122.628 96.752 122.626C95.5306 122.625 94.537 121.632 94.5367 120.411C94.5355 119.191 95.527 118.198 96.7476 118.2ZM84.3718 118.189C85.5924 118.189 86.5859 119.183 86.5871 120.404C86.5875 121.623 85.5968 122.615 84.3762 122.615C83.1548 122.614 82.1612 121.62 82.1609 120.4C82.1596 119.178 83.1503 118.187 84.3718 118.189ZM71.9951 118.175C73.2166 118.176 74.2101 119.171 74.2113 120.391C74.2117 121.611 73.2193 122.604 72.0004 122.602C70.7789 122.601 69.7854 121.607 69.7842 120.386C69.783 119.167 70.7745 118.174 71.9951 118.175ZM59.6193 118.163C60.8399 118.165 61.8334 119.159 61.8347 120.378C61.8359 121.598 60.8443 122.591 59.6237 122.589C58.4031 122.589 57.4088 121.595 57.4084 120.374C57.4072 119.154 58.3987 118.163 59.6193 118.163ZM47.2435 118.15C48.4633 118.153 49.4568 119.146 49.4588 120.365C49.4601 121.587 48.4677 122.579 47.2471 122.577C46.0265 122.575 45.0338 121.582 45.0317 120.362C45.0305 119.142 46.0221 118.149 47.2435 118.15ZM34.8669 118.139C36.0875 118.14 37.081 119.133 37.0822 120.355C37.0834 121.574 36.0927 122.567 34.8713 122.566C33.6507 122.564 32.6571 121.57 32.6559 120.35C32.6547 119.129 33.6463 118.137 34.8669 118.139ZM96.7354 105.903C97.956 105.905 98.9495 106.898 98.9515 108.119C98.9519 109.34 97.9604 110.331 96.7398 110.331C95.5192 110.329 94.5256 109.335 94.5236 108.115C94.5232 106.894 95.5148 105.902 96.7354 105.903ZM84.3587 105.891C85.5802 105.892 86.5737 106.887 86.574 108.106C86.5761 109.326 85.5837 110.319 84.3631 110.317C83.1442 110.316 82.1498 109.322 82.1478 108.101C82.1474 106.883 83.1389 105.889 84.3587 105.891ZM71.9829 105.879C73.2043 105.88 74.1979 106.874 74.1982 108.094C74.2003 109.315 73.2087 110.307 71.9873 110.305C70.7667 110.305 69.7723 109.311 69.772 108.09C69.7707 106.869 70.7623 105.877 71.9829 105.879ZM59.6071 105.866C60.8277 105.868 61.8212 106.861 61.8224 108.081C61.8236 109.303 60.8321 110.294 59.6115 110.292C58.39 110.291 57.3974 109.298 57.3961 108.077C57.3949 106.857 58.3856 105.865 59.6071 105.866ZM47.2313 105.854C48.451 105.856 49.4445 106.849 49.4466 108.07C49.447 109.29 48.4554 110.282 47.2357 110.281C46.0142 110.279 45.0199 109.285 45.0203 108.065C45.0183 106.845 46.0098 105.853 47.2313 105.854ZM34.8555 105.841C36.0744 105.843 37.0687 106.838 37.0708 108.057C37.0712 109.277 36.0788 110.27 34.859 110.268C33.6384 110.266 32.6449 109.273 32.6437 108.053C32.6425 106.833 33.634 105.84 34.8555 105.841Z" fill="#A1AFBC"/>
</g>
</g>
</svg>
